<?xml version="1.0" encoding="UTF-8"?>
<svg width="1080px" height="154px" viewBox="0 0 1080 154" version="1.1" xmlns="http://www.w3.org/2000/svg" xmlns:xlink="http://www.w3.org/1999/xlink">
    <!-- Generator: Sketch 48.2 (47327) - http://www.bohemiancoding.com/sketch -->
    <title>Emma-Logo</title>
    <desc>Created with Sketch.</desc>
    <defs></defs>
    <g id="Social-Assets" stroke="none" stroke-width="1" fill="none" fill-rule="evenodd">
        <g id="Emma-Logo" fill="#FFFFFF">
            <path d="M69.4806288,79.4452878 L39.3338735,79.4452878 L39.3338735,104.968374 L68.0741879,104.968374 L68.8691328,94.2928526 L82.4443451,94.2928526 L82.4443451,118.711575 L12,118.711575 L12,107.9747 L21.4781888,106.134092 L21.4781888,42.0196078 L12,40.1790006 L12,29.3807717 L82.3220459,29.3807717 L82.3220459,53.8608476 L68.6245344,53.8608476 L67.8295895,43.1853257 L39.3338735,43.1853257 L39.3338735,65.6407337 L69.4806288,65.6407337 L69.4806288,79.4452878 Z M90.3326442,63.1252372 L90.3326442,52.3270082 L116.443526,52.3270082 L117.177321,61.1005693 C119.297184,57.9101675 121.957166,55.4458236 125.157344,53.7074636 C128.357523,51.9691037 132.057037,51.0999367 136.255998,51.0999367 C140.495725,51.0999367 144.123898,52.0406821 147.140627,53.9222011 C150.157356,55.8037201 152.440252,58.6464073 153.989383,62.4503479 C156.027714,58.8918228 158.677503,56.1104886 161.938832,54.1062619 C165.20016,52.1020351 169.032164,51.0999367 173.434958,51.0999367 C179.957615,51.0999367 185.104322,53.3597708 188.875233,57.8795066 C192.646144,62.3992425 194.531571,69.2809995 194.531571,78.5249842 L194.531571,106.134092 L203.153666,107.9747 L203.153666,118.711575 L168.971036,118.711575 L168.971036,107.9747 L176.675887,106.134092 L176.675887,78.4636306 C176.675887,73.4326124 175.860567,69.9354937 174.229902,67.9721695 C172.599238,66.0088453 170.173661,65.027198 166.953099,65.027198 C164.42557,65.027198 162.234398,65.5896001 160.379517,66.7144213 C158.524636,67.8392424 157.046869,69.4037429 155.946171,71.4079696 C155.946171,72.1851188 155.966554,72.8497759 156.00732,73.4019608 C156.048087,73.9541457 156.06847,74.5165478 156.06847,75.0891841 L156.06847,106.134092 L163.284123,107.9747 L163.284123,118.711575 L131.058281,118.711575 L131.058281,107.9747 L138.273935,106.134092 L138.273935,78.4636306 C138.273935,73.5553202 137.458615,70.0888779 135.82795,68.0641999 C134.197286,66.0395218 131.751326,65.027198 128.489998,65.027198 C126.084768,65.027198 123.975128,65.4873452 122.161014,66.4076534 C120.3469,67.3279616 118.848749,68.6265992 117.666518,70.3036053 L117.666518,106.134092 L125.371368,107.9747 L125.371368,118.711575 L91.2498883,118.711575 L91.2498883,107.9747 L99.8719826,106.134092 L99.8719826,64.9658444 L90.3326442,63.1252372 Z M206.822642,63.1252372 L206.822642,52.3270082 L232.933523,52.3270082 L233.667319,61.1005693 C235.787182,57.9101675 238.447163,55.4458236 241.647342,53.7074636 C244.847521,51.9691037 248.547035,51.0999367 252.745995,51.0999367 C256.985723,51.0999367 260.613896,52.0406821 263.630625,53.9222011 C266.647354,55.8037201 268.93025,58.6464073 270.479381,62.4503479 C272.517711,58.8918228 275.167501,56.1104886 278.42883,54.1062619 C281.690158,52.1020351 285.522162,51.0999367 289.924955,51.0999367 C296.447613,51.0999367 301.594319,53.3597708 305.365231,57.8795066 C309.136142,62.3992425 311.021569,69.2809995 311.021569,78.5249842 L311.021569,106.134092 L319.643663,107.9747 L319.643663,118.711575 L285.461034,118.711575 L285.461034,107.9747 L293.165884,106.134092 L293.165884,78.4636306 C293.165884,73.4326124 292.350565,69.9354937 290.7199,67.9721695 C289.089236,66.0088453 286.663659,65.027198 283.443097,65.027198 C280.915568,65.027198 278.724395,65.5896001 276.869515,66.7144213 C275.014634,67.8392424 273.536867,69.4037429 272.436168,71.4079696 C272.436168,72.1851188 272.456551,72.8497759 272.497318,73.4019608 C272.538085,73.9541457 272.558468,74.5165478 272.558468,75.0891841 L272.558468,106.134092 L279.774121,107.9747 L279.774121,118.711575 L247.548279,118.711575 L247.548279,107.9747 L254.763932,106.134092 L254.763932,78.4636306 C254.763932,73.5553202 253.948613,70.0888779 252.317948,68.0641999 C250.687284,66.0395218 248.241324,65.027198 244.979996,65.027198 C242.574766,65.027198 240.465125,65.4873452 238.651011,66.4076534 C236.836897,67.3279616 235.338747,68.6265992 234.156515,70.3036053 L234.156515,106.134092 L241.861366,107.9747 L241.861366,118.711575 L207.739886,118.711575 L207.739886,107.9747 L216.36198,106.134092 L216.36198,64.9658444 L206.822642,63.1252372 Z M367.523804,118.711575 C367.034605,117.607205 366.606562,116.472175 366.239663,115.306452 C365.872763,114.140728 365.587401,112.964796 365.383568,111.778621 C363.263705,114.232776 360.685255,116.216522 357.648143,117.729918 C354.611031,119.243313 351.13573,120 347.222135,120 C340.740245,120 335.593538,118.23099 331.78186,114.692916 C327.970182,111.154842 326.064372,106.338635 326.064372,100.244149 C326.064372,94.0269561 328.551098,89.2209742 333.524624,85.8260595 C338.49815,82.4311447 345.795263,80.7337128 355.416182,80.7337128 L364.527474,80.7337128 L364.527474,74.230234 C364.527474,71.0398322 363.610239,68.5652629 361.775741,66.8064516 C359.941244,65.0476404 357.230305,64.1682479 353.642844,64.1682479 C351.604514,64.1682479 349.790427,64.4034343 348.200529,64.873814 C346.610631,65.3441938 345.326503,65.9065959 344.348104,66.5610373 L343.186261,73.6780519 L329.733348,73.6780519 L329.794498,58.9531942 C333.055827,56.7444545 336.796107,54.8834147 341.01545,53.370019 C345.234794,51.8566233 349.83116,51.0999367 354.804686,51.0999367 C362.998774,51.0999367 369.653823,53.1143589 374.770033,57.1432638 C379.886242,61.1721686 382.444308,66.9086703 382.444308,74.3529412 L382.444308,101.777989 C382.444308,102.800553 382.454499,103.76175 382.474883,104.661607 C382.495266,105.561463 382.566607,106.420405 382.688906,107.238457 L388.131221,107.9747 L388.131221,118.711575 L367.523804,118.711575 Z M352.052954,106.747628 C354.74355,106.747628 357.18951,106.164775 359.390907,104.999051 C361.592304,103.833328 363.304475,102.371082 364.527474,100.612271 L364.527474,90.4889311 L355.416182,90.4889311 C351.624888,90.4889311 348.750885,91.378549 346.794088,93.1578115 C344.837291,94.937074 343.858907,97.0742022 343.858907,99.56926 C343.858907,101.818902 344.582504,103.577687 346.029718,104.845667 C347.476933,106.113647 349.484658,106.747628 352.052954,106.747628 Z M424.882134,84.9057559 C424.882134,75.0073298 427.64403,66.8985136 433.167905,60.5790639 C438.691781,54.2596142 446.325213,51.0999367 456.068433,51.0999367 C465.852418,51.0999367 473.506234,54.2493887 479.030109,60.5483871 C484.553985,66.8473855 487.315881,74.9664272 487.315881,84.9057559 L487.315881,86.1941809 C487.315881,96.1744121 484.553985,104.303679 479.030109,110.582226 C473.506234,116.860774 465.893184,120 456.190732,120 C446.365979,120 438.691781,116.860774 433.167905,110.582226 C427.64403,104.303679 424.882134,96.1744121 424.882134,86.1941809 L424.882134,84.9057559 Z M442.737819,86.1941809 C442.737819,92.2477638 443.797735,97.1048731 445.917598,100.765655 C448.037462,104.426436 451.461805,106.256799 456.190732,106.256799 C460.797358,106.256799 464.170745,104.416211 466.310991,100.734978 C468.451238,97.053745 469.521346,92.2068612 469.521346,86.1941809 L469.521346,84.9057559 C469.521346,79.0157833 468.441047,74.2098014 466.280417,70.487666 C464.119786,66.7655306 460.715826,64.9044908 456.068433,64.9044908 C451.421039,64.9044908 448.037462,66.7655306 445.917598,70.487666 C443.797735,74.2098014 442.737819,79.0157833 442.737819,84.9057559 L442.737819,86.1941809 Z M494.103487,107.9747 L502.664432,106.134092 L502.664432,64.9658444 L493.186243,63.1252372 L493.186243,52.3270082 L519.297124,52.3270082 L520.092069,61.8368121 C522.293466,58.4418974 525.004405,55.8037201 528.224967,53.9222011 C531.445529,52.0406821 535.053319,51.0999367 539.048447,51.0999367 C545.73417,51.0999367 550.952218,53.2063884 554.702746,57.4193548 C558.453274,61.6323213 560.328509,68.23799 560.328509,77.2365591 L560.328509,106.134092 L568.889454,107.9747 L568.889454,118.711575 L534.767974,118.711575 L534.767974,107.9747 L542.411675,106.134092 L542.411675,77.2979127 C542.411675,72.8395307 541.514823,69.6798533 539.721092,67.8187856 C537.927362,65.9577179 535.216423,65.027198 531.588195,65.027198 C529.223732,65.027198 527.1039,65.5077962 525.228636,66.469007 C523.353372,67.4302178 521.783881,68.7902084 520.520116,70.5490196 L520.520116,106.134092 L527.73577,107.9747 L527.73577,118.711575 L494.103487,118.711575 L494.103487,107.9747 Z M603.928178,107.9747 L610.287737,107.054396 L637.377012,29.3807717 L655.660744,29.3807717 L682.56657,107.054396 L688.926129,107.9747 L688.926129,118.711575 L658.595925,118.711575 L658.595925,107.9747 L664.772035,106.870335 L660.85846,94.5996205 L631.995847,94.5996205 L628.082272,106.870335 L634.258382,107.9747 L634.258382,118.711575 L603.928178,118.711575 L603.928178,107.9747 Z M636.215169,81.4086022 L656.639137,81.4086022 L646.610602,49.9342188 L646.243705,49.9342188 L636.215169,81.4086022 Z M714.425514,36.0683112 L714.425514,52.3270082 L726.043939,52.3270082 L726.043939,64.9044908 L714.425514,64.9044908 L714.425514,98.7103099 C714.425514,101.287173 714.955472,103.127762 716.015404,104.232132 C717.075336,105.336501 718.502146,105.888678 720.295876,105.888678 C721.518875,105.888678 722.588982,105.837551 723.506231,105.735294 C724.423479,105.633038 725.452821,105.459204 726.594286,105.213789 L728.123026,118.159393 C726.125462,118.772932 724.148311,119.233079 722.191514,119.539848 C720.234717,119.846618 718.114885,120 715.831955,120 C709.676197,120 704.93715,118.302568 701.614672,114.907653 C698.292194,111.512739 696.630979,106.134129 696.630979,98.7716635 L696.630979,64.9044908 L686.908192,64.9044908 L686.908192,52.3270082 L696.630979,52.3270082 L696.630979,36.0683112 L714.425514,36.0683112 Z M732.892695,33.798229 L732.892695,23 L760.287718,23 L760.287718,106.134092 L768.909812,107.9747 L768.909812,118.711575 L733.809939,118.711575 L733.809939,107.9747 L742.432033,106.134092 L742.432033,35.6388362 L732.892695,33.798229 Z M816.851103,118.711575 C816.361904,117.607205 815.933861,116.472175 815.566961,115.306452 C815.200062,114.140728 814.9147,112.964796 814.710867,111.778621 C812.591003,114.232776 810.012554,116.216522 806.975442,117.729918 C803.938329,119.243313 800.463028,120 796.549434,120 C790.067543,120 784.920836,118.23099 781.109159,114.692916 C777.297481,111.154842 775.391671,106.338635 775.391671,100.244149 C775.391671,94.0269561 777.878396,89.2209742 782.851922,85.8260595 C787.825449,82.4311447 795.122562,80.7337128 804.743481,80.7337128 L813.854772,80.7337128 L813.854772,74.230234 C813.854772,71.0398322 812.937537,68.5652629 811.10304,66.8064516 C809.268543,65.0476404 806.557604,64.1682479 802.970143,64.1682479 C800.931812,64.1682479 799.117725,64.4034343 797.527828,64.873814 C795.93793,65.3441938 794.653801,65.9065959 793.675403,66.5610373 L792.51356,73.6780519 L779.060647,73.6780519 L779.121797,58.9531942 C782.383125,56.7444545 786.123405,54.8834147 790.342749,53.370019 C794.562093,51.8566233 799.158459,51.0999367 804.131985,51.0999367 C812.326073,51.0999367 818.981122,53.1143589 824.097331,57.1432638 C829.21354,61.1721686 831.771607,66.9086703 831.771607,74.3529412 L831.771607,101.777989 C831.771607,102.800553 831.781798,103.76175 831.802181,104.661607 C831.822565,105.561463 831.893905,106.420405 832.016205,107.238457 L837.45852,107.9747 L837.45852,118.711575 L816.851103,118.711575 Z M801.380253,106.747628 C804.070849,106.747628 806.516809,106.164775 808.718205,104.999051 C810.919602,103.833328 812.631774,102.371082 813.854772,100.612271 L813.854772,90.4889311 L804.743481,90.4889311 C800.952187,90.4889311 798.078184,91.378549 796.121387,93.1578115 C794.16459,94.937074 793.186206,97.0742022 793.186206,99.56926 C793.186206,101.818902 793.909802,103.577687 795.357017,104.845667 C796.804231,106.113647 798.811957,106.747628 801.380253,106.747628 Z M842.533937,107.9747 L851.094882,106.134092 L851.094882,64.9658444 L841.616693,63.1252372 L841.616693,52.3270082 L867.727574,52.3270082 L868.522519,61.8368121 C870.723916,58.4418974 873.434855,55.8037201 876.655417,53.9222011 C879.875979,52.0406821 883.483769,51.0999367 887.478897,51.0999367 C894.16462,51.0999367 899.382668,53.2063884 903.133196,57.4193548 C906.883724,61.6323213 908.758959,68.23799 908.758959,77.2365591 L908.758959,106.134092 L917.319904,107.9747 L917.319904,118.711575 L883.198424,118.711575 L883.198424,107.9747 L890.842125,106.134092 L890.842125,77.2979127 C890.842125,72.8395307 889.945273,69.6798533 888.151542,67.8187856 C886.357812,65.9577179 883.646873,65.027198 880.018645,65.027198 C877.654182,65.027198 875.53435,65.5077962 873.659086,66.469007 C871.783822,67.4302178 870.214331,68.7902084 868.950566,70.5490196 L868.950566,106.134092 L876.16622,107.9747 L876.16622,118.711575 L842.533937,118.711575 L842.533937,107.9747 Z M949.362297,36.0683112 L949.362297,52.3270082 L960.980722,52.3270082 L960.980722,64.9044908 L949.362297,64.9044908 L949.362297,98.7103099 C949.362297,101.287173 949.892255,103.127762 950.952187,104.232132 C952.012119,105.336501 953.438929,105.888678 955.232659,105.888678 C956.455658,105.888678 957.525765,105.837551 958.443014,105.735294 C959.360262,105.633038 960.389604,105.459204 961.531069,105.213789 L963.059809,118.159393 C961.062245,118.772932 959.085094,119.233079 957.128297,119.539848 C955.1715,119.846618 953.051668,120 950.768738,120 C944.61298,120 939.873933,118.302568 936.551455,114.907653 C933.228976,111.512739 931.567762,106.134129 931.567762,98.7716635 L931.567762,64.9044908 L921.844975,64.9044908 L921.844975,52.3270082 L931.567762,52.3270082 L931.567762,36.0683112 L949.362297,36.0683112 Z M969.174769,107.9747 L977.796864,106.134092 L977.796864,64.9658444 L968.257525,63.1252372 L968.257525,52.3270082 L995.652548,52.3270082 L995.652548,106.134092 L1004.21349,107.9747 L1004.21349,118.711575 L969.174769,118.711575 L969.174769,107.9747 Z M995.652548,36.4364326 L977.796864,36.4364326 L977.796864,23 L995.652548,23 L995.652548,36.4364326 Z M1041.14785,106.256799 C1044.32765,106.256799 1046.87552,105.32628 1048.79156,103.465212 C1050.70759,101.604144 1051.66559,99.1193493 1051.66559,96.0107527 L1067.80908,96.0107527 L1067.99253,96.3788741 C1068.1556,103.086898 1065.64849,108.700694 1060.47113,113.22043 C1055.29377,117.740166 1048.85274,120 1041.14785,120 C1031.28234,120 1023.67948,116.870999 1018.33905,110.612903 C1012.99863,104.354807 1010.32845,96.3175696 1010.32845,86.5009488 L1010.32845,84.6603416 C1010.32845,74.8846233 1013.06997,66.8473855 1018.55308,60.5483871 C1024.03618,54.2493887 1031.85306,51.0999367 1042.00395,51.0999367 C1047.34437,51.0999367 1052.13438,51.8975252 1056.37411,53.4927261 C1060.61383,55.087927 1064.14009,57.3375356 1066.95299,60.2416192 L1067.19759,77.972802 L1052.70513,77.972802 L1049.76995,67.6040481 C1048.87308,66.8268989 1047.7724,66.1826928 1046.46787,65.6714105 C1045.16334,65.1601282 1043.67538,64.9044908 1042.00395,64.9044908 C1036.94889,64.9044908 1033.38187,66.7450796 1031.30277,70.4263125 C1029.22367,74.1075453 1028.18414,78.8521742 1028.18414,84.6603416 L1028.18414,86.5009488 C1028.18414,92.4318239 1029.14214,97.2071293 1031.05817,100.827008 C1032.9742,104.446887 1036.33739,106.256799 1041.14785,106.256799 Z" id="Emma-on-Atlantic"></path>
        </g>
    </g>
</svg>